HIERARCHY
ROOT Hips
{
	OFFSET 0.000000 0.000000 0.000000
	CHANNELS 6 Xposition Yposition Zposition Zrotation Yrotation Xrotation 
	JOINT LHipJoint
	{
		OFFSET 0.000000 0.000000 0.000000
		CHANNELS 3 Zrotation Yrotation Xrotation
		JOINT LeftUpLeg
		{
			OFFSET 1.363060 -1.794630 0.839290
			CHANNELS 3 Zrotation Yrotation Xrotation
			JOINT LeftLeg
			{
				OFFSET 2.448110 -6.726130 0.000000
				CHANNELS 3 Zrotation Yrotation Xrotation
				JOINT LeftFoot
				{
					OFFSET 2.562200 -7.039590 0.000000
					CHANNELS 3 Zrotation Yrotation Xrotation
					JOINT LeftToeBase
					{
						OFFSET 0.157640 -0.433110 2.322550
						CHANNELS 3 Zrotation Yrotation Xrotation
						End Site
						{
							OFFSET 0.000000 0.000000 0.000000
						}
					}
				}
			}
		}
	}
	JOINT RHipJoint
	{
		OFFSET 0.000000 0.000000 0.000000
		CHANNELS 3 Zrotation Yrotation Xrotation
		JOINT RightUpLeg
		{
			OFFSET -1.305520 -1.794630 0.839290
			CHANNELS 3 Zrotation Yrotation Xrotation
			JOINT RightLeg
			{
				OFFSET -2.542530 -6.985550 0.000000
				CHANNELS 3 Zrotation Yrotation Xrotation
				JOINT RightFoot
				{
					OFFSET -2.568260 -7.056230 0.000000
					CHANNELS 3 Zrotation Yrotation Xrotation
					JOINT RightToeBase
					{
						OFFSET -0.164730 -0.452590 2.363150
						CHANNELS 3 Zrotation Yrotation Xrotation
						End Site
						{
							OFFSET 0.000000 0.000000 0.000000
						}
					}
				}
			}
		}
	}
	JOINT LowerBack
	{
		OFFSET 0.000000 0.000000 0.000000
		CHANNELS 3 Zrotation Yrotation Xrotation
		JOINT Spine
		{
			OFFSET 0.028270 2.035590 -0.193380
			CHANNELS 3 Zrotation Yrotation Xrotation
			JOINT Spine1
			{
				OFFSET 0.056720 2.048850 -0.042750
				CHANNELS 3 Zrotation Yrotation Xrotation
				JOINT Neck
				{
					OFFSET 0.000000 0.000000 0.000000
					CHANNELS 3 Zrotation Yrotation Xrotation
					JOINT Neck1
					{
						OFFSET -0.054170 1.746240 0.172020
						CHANNELS 3 Zrotation Yrotation Xrotation
						JOINT Head
						{
							OFFSET 0.104070 1.761360 -0.123970
							CHANNELS 3 Zrotation Yrotation Xrotation
							End Site
							{
								OFFSET 0.000000 0.000000 0.000000
							}
						}
					}
				}
				JOINT LeftShoulder
				{
					OFFSET 0.000000 0.000000 0.000000
					CHANNELS 3 Zrotation Yrotation Xrotation
					JOINT LeftArm
					{
						OFFSET 3.362410 1.200890 -0.311210
						CHANNELS 3 Zrotation Yrotation Xrotation
						JOINT LeftForeArm
						{
							OFFSET 4.983000 -0.000000 -0.000000
							CHANNELS 3 Zrotation Yrotation Xrotation
							JOINT LeftHand
							{
								OFFSET 3.483560 -0.000000 -0.000000
								CHANNELS 3 Zrotation Yrotation Xrotation
								JOINT LeftFingerBase
								{
									OFFSET 0.000000 0.000000 0.000000
									CHANNELS 3 Zrotation Yrotation Xrotation
									JOINT LeftHandIndex1
									{
										OFFSET 0.715260 -0.000000 -0.000000
										CHANNELS 3 Zrotation Yrotation Xrotation
										End Site
										{
											OFFSET 0.000000 0.000000 0.000000
										}
									}
								}
								JOINT LThumb
								{
									OFFSET 0.000000 0.000000 0.000000
									CHANNELS 3 Zrotation Yrotation Xrotation
									End Site
									{
										OFFSET 0.000000 0.000000 0.000000
									}
								}
							}
						}
					}
				}
				JOINT RightShoulder
				{
					OFFSET 0.000000 0.000000 0.000000
					CHANNELS 3 Zrotation Yrotation Xrotation
					JOINT RightArm
					{
						OFFSET -3.136600 1.374050 -0.404650
						CHANNELS 3 Zrotation Yrotation Xrotation
						JOINT RightForeArm
						{
							OFFSET -5.241900 -0.000000 -0.000000
							CHANNELS 3 Zrotation Yrotation Xrotation
							JOINT RightHand
							{
								OFFSET -3.444170 -0.000000 -0.000000
								CHANNELS 3 Zrotation Yrotation Xrotation
								JOINT RightFingerBase
								{
									OFFSET 0.000000 0.000000 0.000000
									CHANNELS 3 Zrotation Yrotation Xrotation
									JOINT RightHandIndex1
									{
										OFFSET -0.622530 -0.000000 -0.000000
										CHANNELS 3 Zrotation Yrotation Xrotation
										End Site
										{
											OFFSET 0.000000 0.000000 0.000000
										}
									}
								}
								JOINT RThumb
								{
									OFFSET 0.000000 0.000000 0.000000
									CHANNELS 3 Zrotation Yrotation Xrotation
									End Site
									{
										OFFSET 0.000000 0.000000 0.000000
									}
								}
							}
						}
					}
				}
			}
		}
	}
}
MOTION
Frames: 4
Frame Time: 0.008333
-9.786869 17.546463 -16.241651 -156.106892 87.421454 -156.256532 2.337902 -1.722097 -0.402169 -14.377597 -6.882572 -4.742956 -0.433413 10.065889 26.796230 0.435964 3.775672 -17.194521 3.265000 -11.112200 -32.659100 -11.451088 -0.972004 -5.415273 23.026179 -11.553534 12.028751 2.055378 -0.776171 3.692154 0.699133 -13.117300 -12.870961 -0.044600 1.363200 -3.748800 2.595920 -0.276499 11.260671 1.071234 0.011285 -1.495897 1.089661 -0.261645 -4.225325 -6.271477 -4.747796 -23.690293 3.960447 -4.691176 19.755065 1.685500 -2.196600 15.841300 5.180909 -7.306168 0.377149 -89.502502 -24.733937 44.737033 97.702662 -54.067776 -65.640133 -1.516783 0.437761 -34.166247 36.894274 26.609107 18.044900 -7.125000 0.000000 0.000000 10.088500 59.959000 3.705500 -6.339422 6.961008 1.198267 81.091543 16.973728 39.528607 -102.765892 54.040041 -68.607449 1.416589 -1.190602 3.777702 -24.959014 -34.599166 15.151000 7.125000 0.000000 0.000000 7.610800 -65.703700 -3.815100 
-9.798692 17.549003 -16.249859 -158.192599 87.684622 -158.315929 2.291537 -1.685840 -0.371390 -14.545245 -6.858917 -4.762693 -0.466722 10.064649 26.703683 0.420691 3.880366 -17.226966 3.244600 -11.080900 -32.553100 -11.478388 -0.917874 -5.455544 22.845291 -11.419162 12.035140 2.049024 -0.755988 3.694131 0.692823 -13.056428 -12.916469 -0.032500 1.163900 -3.199800 2.452255 -0.198522 11.310848 1.037861 0.094712 -1.477648 1.083990 -0.204919 -4.215982 -6.333847 -4.763625 -23.707130 4.007827 -4.703524 19.594858 1.717700 -2.208800 15.747200 5.120920 -7.220228 0.429871 -89.362873 -26.368025 44.498687 95.110966 -54.322419 -63.170187 -1.568661 0.450350 -34.769721 36.700043 26.713720 17.966000 -7.125000 0.000000 0.000000 9.869900 59.957300 3.623800 -6.287888 6.897331 1.202423 80.555015 18.146158 39.199367 -101.068363 54.316126 -66.948684 1.441490 -1.217529 3.677144 -24.315819 -34.435397 14.693800 7.125000 0.000000 0.000000 8.256300 -65.345600 -4.072300 
-9.812176 17.551739 -16.254842 -160.887334 87.986014 -160.979090 2.243057 -1.628520 -0.329280 -14.705689 -6.795481 -4.807382 -0.500610 10.062162 26.594377 0.416306 3.900159 -17.237041 3.161500 -10.951900 -32.117900 -11.508389 -0.840137 -5.510276 22.660460 -11.276803 12.040148 2.042615 -0.733116 3.696737 0.687307 -12.999158 -12.956063 -0.021400 0.944600 -2.596400 2.242662 -0.104379 11.360079 1.004498 0.188811 -1.449787 1.097371 -0.136253 -4.185130 -6.356827 -4.776460 -23.753719 4.039971 -4.722368 19.476960 1.734000 -2.219200 15.683500 5.055608 -7.125049 0.497985 -89.124169 -28.068078 44.249861 92.199793 -54.561146 -60.404614 -1.625447 0.459820 -35.441867 36.501450 26.807510 17.877700 -7.125000 0.000000 0.000000 9.651500 59.939200 3.538500 -6.238244 6.833064 1.201946 80.126883 19.356884 38.822058 -99.289534 54.589269 -65.211814 1.463110 -1.251745 3.759647 -23.823092 -34.137497 14.283700 7.125000 0.000000 0.000000 8.602700 -64.892300 -4.153900 
-9.826832 17.554866 -16.257773 -163.532602 88.258857 -163.575327 2.207057 -1.565610 -0.287877 -14.827863 -6.732032 -4.885953 -0.530150 10.060294 26.491084 0.419635 3.861612 -17.229971 3.036900 -10.754600 -31.456500 -11.529569 -0.757383 -5.563198 22.515418 -11.142927 12.011004 2.037233 -0.713304 3.697585 0.684182 -12.959192 -12.975380 -0.013600 0.753000 -2.069500 2.035681 -0.020418 11.400429 0.980774 0.268118 -1.420518 1.121036 -0.074156 -4.141267 -6.337310 -4.771243 -23.826793 4.046476 -4.726662 19.391003 1.730500 -2.220900 15.640400 4.989154 -7.026980 0.578397 -88.799097 -29.761049 43.998386 89.163410 -54.750223 -57.545679 -1.680295 0.466217 -36.078554 36.341538 26.874757 17.798600 -7.125000 0.000000 0.000000 9.483900 59.905500 3.468800 -6.190773 6.763715 1.196681 79.840365 20.647951 38.418187 -97.380844 54.864529 -63.352374 1.484732 -1.289949 3.931167 -23.381665 -33.859278 13.917500 7.125000 0.000000 0.000000 8.891500 -64.471900 -4.207600 
